<svg xmlns="http://www.w3.org/2000/svg" class="" viewBox="0 0 402 41.02"><title>logo</title><g data-name="Layer 2"><g data-name="Layer 1"><path d="M8,0H0V16.31l4.69.88ZM0,19.55V27l3.47-3.45.62-3.24ZM0,41H.39l2.25-12L0,31.65Zm3.85,0H12L5.87,30.39Zm20.28-2.23L22,41h7.88l1-9.51-6.79,7.27ZM18.65,23.67,7.55,21.59,6.89,25c-.14.73,7.26,13.39,8.78,16h1.44l5.21-5h0l8.82-8.51.27-1.42L18.66,23.67ZM34,41h7.45v-.65l-6.26-7.75ZM35.51,28.5l5.9,7V27.3l-5.59-.42ZM8.26,17.85l10.35,2.3h0l13.47,3,3-17.45,5.38.59-4,17.36,5,.56V0H11.66Zm55.35-4.74c0-3,1.94-5,5.22-5a7.25,7.25,0,0,1,5,1.8l1.33-2a9.21,9.21,0,0,0-6.19-2.13,7.29,7.29,0,0,0-7.52,7.5c0,9.06,12.12,7.38,12.12,14.38,0,3-2.05,5.33-5.79,5.33a9.26,9.26,0,0,1-6.48-2.5l-1.33,2a10.77,10.77,0,0,0,7.66,2.87c5.14,0,8.13-3.44,8.13-7.79C75.73,18.69,63.61,20.28,63.61,13.11Zm31.95-7-6.33,22c-.47,1.64-1,3.32-1.44,5h-.14c-.47-1.64-1-3.32-1.44-5l-6.33-22H77.53l8.31,28.73h3.63L97.79,6.15Zm9.68,0L96.93,34.87h2.27L101.75,26h10.58l2.55,8.85h2.3L108.87,6.15Zm-2.84,17.58,3.24-11.23c.43-1.56.9-3.11,1.33-4.67h.14c.47,1.6.9,3.16,1.37,4.75l3.2,11.15ZM123.08,6.15h-2.16V34.87h13.42V32.58H123.08Zm17.48,15.33h9.53v-2.3h-9.53V8.44h10.79V6.15h-13V34.87H151.9V32.58H140.56Zm30.51,10.2a8.61,8.61,0,0,1-5,1.31c-5.11,0-8-3.52-8-12.58,0-10.08,4.35-12.34,8.13-12.34,2.55,0,4.28.7,5.43,1.89L173,8c-.86-.9-2.7-2.25-6.65-2.25-5.86,0-10.54,4.47-10.54,14.83,0,9.83,3.42,14.71,9.78,14.71,3.67,0,6-1.07,7.59-2.58V20.33h-2.16ZM184.71,6.15,176.4,34.87h2.27L181.22,26h10.58l2.55,8.85h2.3L188.34,6.15Zm-2.84,17.58L185.1,12.5c.43-1.56.9-3.11,1.33-4.67h.14c.47,1.6.9,3.16,1.37,4.75l3.2,11.15ZM205.39,6.15l-8.31,28.73h2.27L201.9,26h10.58L215,34.87h2.3L209,6.15Zm-2.84,17.58,3.24-11.23c.43-1.56.9-3.11,1.33-4.67h.14c.47,1.6.9,3.16,1.37,4.75l3.2,11.15Zm26.87-1.64v-.16c3.06-.33,5.79-3.16,5.79-7.79,0-5.66-3.17-8-8.31-8h-5.83V34.87h2.16V22.62h2.41c2,0,3.27,1,4.35,3.11l4.68,9.14h2.59l-4.86-9.26C231.3,23.44,230.36,22.54,229.42,22.09Zm-2.63-1.72h-3.56V8.44h3.31c4.17,0,6.44,1.6,6.44,6S230.43,20.37,226.8,20.37ZM248.6,6.15h-6.3V34.87h6.19c7.34,0,10.86-4.63,10.86-14.55C259.36,10.57,256,6.15,248.6,6.15Zm0,26.39h-4.14V8.48h3.92c5.68,0,8.74,3.16,8.74,12.17S254.25,32.54,248.6,32.54Zm18.78-11.06h9.53v-2.3h-9.53V8.44h10.79V6.15h-13V34.87h13.49V32.58H267.38ZM299.61,32h-.29c-.9-1.93-1.83-3.89-2.73-5.82l-9.39-20h-3.35V34.87h2.05V9h.29c.93,2,1.83,3.93,2.77,5.9l9.35,20h3.31V6.15h-2Zm31.7-6.84h-.18l-6.51-19h-5.76V34.87h3.42V11h.22l6.87,19.92h3.49c2.27-6.56,4.64-13.32,6.91-19.92h.18V34.87h3.53V6.15h-5.65Zm22.31-3.07h8.92V18.52h-8.92V9.71h10.22V6.15H350V34.87H364.3V31.31H353.61Zm18.53-8.69a3.84,3.84,0,0,1,4.17-4,6.7,6.7,0,0,1,4.86,2.17l2.23-3.16a9.38,9.38,0,0,0-6.83-2.7,7.78,7.78,0,0,0-8.09,8c0,9.06,11.87,7.83,11.87,13.77,0,2.34-1.58,4.18-4.64,4.18a9.15,9.15,0,0,1-6.44-2.91l-2.12,3.4a11.25,11.25,0,0,0,8.16,3.16c5.68,0,8.74-3.77,8.74-8.07C384,18.24,372.14,19.42,372.14,13.4Zm13-7.25V9.71h6.62V34.87h3.63V9.71H402V6.15Z" style="fill:#fff"></path></g></g></svg>
