<?xml version="1.0" encoding="utf-8"?>
<!-- Generator: Adobe Illustrator 24.0.1, SVG Export Plug-In . SVG Version: 6.00 Build 0)  -->
<svg version="1.1" id="Layer_1" xmlns="http://www.w3.org/2000/svg" xmlns:xlink="http://www.w3.org/1999/xlink" x="0px" y="0px"
	 viewBox="0 0 402 41" style="enable-background:new 0 0 402 41;" xml:space="preserve">
<style type="text/css">
	.st0{fill:#FFFFFF;}
</style>
<g>
	<g>
		<path class="st0" d="M48.5,5.1c0-1.9,1.3-3.2,3.4-3.2c1.2,0,2.4,0.4,3.2,1.2L56,1.7c-1.1-0.9-2.6-1.4-4-1.4
			c-2.6-0.1-4.8,2-4.9,4.6c0,0.1,0,0.2,0,0.3c0,5.9,7.9,4.8,7.9,9.3c0,1.9-1.3,3.5-3.8,3.5c-1.6,0-3.1-0.6-4.2-1.6l-0.9,1.3
			c1.3,1.3,3.1,1.9,5,1.9c3.3,0,5.3-2.2,5.3-5.1C56.4,8.7,48.5,9.7,48.5,5.1z M69.3,0.5l-4.1,14.3c-0.3,1.1-0.6,2.2-0.9,3.2h-0.1
			c-0.3-1.1-0.6-2.2-0.9-3.2L59.1,0.5h-1.5l5.4,18.7h2.4l5.4-18.6L69.3,0.5z M75.5,0.5l-5.4,18.7h1.5l1.7-5.8h6.9l1.7,5.7h1.5
			L77.9,0.5L75.5,0.5z M73.7,11.9l2.1-7.3c0.3-1,0.6-2,0.9-3h0.1c0.3,1,0.6,2.1,0.9,3.1l2.1,7.2H73.7z M87.1,0.5h-1.4v18.6h8.7v-1.5
			h-7.3V0.5z M98.5,10.5h6.2V9h-6.2V2h7V0.5H97v18.6h8.8v-1.5h-7.4V10.5z M118.3,17.1c-1,0.6-2.1,0.9-3.2,0.9
			c-3.3,0-5.2-2.3-5.2-8.2c0-6.5,2.8-8,5.3-8c1.7,0,2.8,0.5,3.5,1.2l0.9-1.3c-0.6-0.6-1.8-1.5-4.3-1.5c-3.8,0-6.8,2.9-6.8,9.6
			c0,6.4,2.2,9.5,6.3,9.5c2.4,0,3.9-0.7,4.9-1.7v-8h-1.4L118.3,17.1z M127.1,0.5l-5.4,18.6h1.5l1.7-5.8h6.9l1.7,5.7h1.5l-5.4-18.6
			H127.1z M125.3,11.9l2.1-7.3c0.3-1,0.6-2,0.9-3h0.1c0.3,1,0.6,2.1,0.9,3.1l2.1,7.2H125.3z M140.5,0.5l-5.4,18.7h1.5l1.7-5.8h6.9
			l1.6,5.8h1.5l-5.4-18.6H140.5z M138.7,11.9l2.1-7.3c0.3-1,0.6-2,0.9-3h0.1c0.3,1,0.6,2.1,0.9,3.1l2.1,7.2H138.7z M156.1,10.9v-0.1
			c2-0.2,3.8-2.1,3.8-5.1c0-3.7-2.1-5.2-5.4-5.2h-3.8v18.7h1.4v-8h1.6c1.3,0,2.1,0.6,2.8,2l3,5.9h1.7l-3.2-6
			C157.4,11.8,156.8,11.2,156.1,10.9z M154.4,9.8h-2.3V2h2.1c2.7,0,4.2,1,4.2,3.9S156.8,9.8,154.4,9.8L154.4,9.8z M168.6,0.5h-4.1
			v18.6h4c4.8,0,7.1-3,7.1-9.4C175.6,3.4,173.4,0.5,168.6,0.5z M168.6,17.7h-2.7V2h2.5c3.7,0,5.7,2.1,5.7,7.9S172.3,17.7,168.6,17.7
			z M180.8,10.5h6.2V9h-6.2V2h7V0.5h-8.4v18.6h8.8v-1.5h-7.3V10.5z M201.7,17.3h-0.2c-0.6-1.3-1.2-2.5-1.8-3.8l-6.1-13h-2.2v18.6
			h1.3V2.4h0.2c0.6,1.3,1.2,2.6,1.8,3.8l6.1,13h2.1V0.5h-1.3L201.7,17.3z"/>
	</g>
</g>
<g>
	<g>
		<path class="st0" d="M8,0H0v16.3l4.7,0.9L8,0z M0,19.5v7.4l3.5-3.4l0.6-3.2L0,19.5z M0,40.9h0.4l2.2-12L0,31.6V40.9z M3.8,40.9H12
			L5.9,30.3L3.8,40.9z M24.1,38.7l-2.1,2.2h7.9l1-9.5L24.1,38.7L24.1,38.7z M18.6,23.6L7.5,21.5l-0.7,3.4c-0.1,0.7,7.2,13.4,8.8,16
			h1.4l5.2-5l0,0l8.8-8.5l0.3-1.4L18.6,23.6L18.6,23.6z M33.9,40.9h7.4v-0.6l-6.2-7.7L33.9,40.9z M35.4,28.4l5.9,7v-8.2l-5.6-0.4
			L35.4,28.4z M8.2,17.8l10.3,2.3l0,0l13.4,3l3-17.4l5.4,0.6l-4,17.3l5,0.6V0H11.6L8.2,17.8z"/>
	</g>
</g>
<g>
	<g>
		<path class="st0" d="M54.2,34.4h-0.1l-4.2-12.3h-3.7v18.6h2.2V25.2h0.1L53,38.2h2.3c1.5-4.3,3-8.6,4.5-12.9h0.1v15.5h2.3V22.1
			h-3.7L54.2,34.4z M68.7,32.4h5.8v-2.3h-5.8v-5.7h6.6v-2.3h-9v18.6h9.3v-2.3h-6.9L68.7,32.4z M80.7,26.8c-0.1-1.4,1-2.5,2.4-2.6
			c0.1,0,0.2,0,0.3,0c1.2,0,2.3,0.5,3.2,1.4l1.4-2.1c-1.2-1.2-2.8-1.8-4.4-1.8c-2.8-0.1-5.1,2.1-5.2,4.8c0,0.1,0,0.2,0,0.4
			c0,5.9,7.7,5.1,7.7,8.9c0,1.5-1,2.7-3,2.7c-1.6,0-3.1-0.7-4.2-1.9L77.5,39c1.4,1.4,3.3,2.1,5.3,2.1c3.7,0,5.7-2.4,5.7-5.2
			C88.4,29.9,80.7,30.7,80.7,26.8L80.7,26.8z M89.2,22.1v2.3h4.3v16.3h2.4V24.4h4.3v-2.3H89.2z"/>
	</g>
</g>
</svg>
