<svg xmlns="http://www.w3.org/2000/svg" viewBox="0 0 256.85 206.87"><defs><style>.cls-1,.cls-2{fill:none;stroke-miterlimit:10;stroke-width:11px;}.cls-1{stroke:#fff;}.cls-2{stroke:#d6355a;}</style></defs><g id="Layer_2" data-name="Layer 2"><g id="Layer_1-2" data-name="Layer 1"><path class="cls-1" d="M120,109.5c-6,8-13.94,40.78-31,59-25.84,27.6-56.45,30.21-69,33"/><path class="cls-2" d="M173,121h30.5c.54,0,35.49-.21,45,0,1.46,0,1.93.54,2,2l.83,55.54A13.18,13.18,0,0,1,250,185.1L248.5,188c-7,8-12,8-18.3,7.85l-58.86-.32a7.14,7.14,0,0,1-6.92-5.57c-2.07-9.31-6.16-28.18-7.86-39.55C152,120.3,93.54,23.89,26.21,11.25A17.47,17.47,0,0,0,5.62,28.47l-.12,166"/><path class="cls-1" d="M136.34,79.19c6.85-6.54,20.45-30.85,35.39-48.22C191.89,7.52,228.92,5.75,251,5.5"/></g></g></svg>