<svg xmlns="http://www.w3.org/2000/svg" viewBox="0 0 194 149"><defs><style>.cls-1,.cls-2,.cls-3{fill:none;stroke-miterlimit:10;stroke-width:11px;}.cls-1{stroke:#fff;}.cls-2{stroke:#9f2541;}.cls-3{stroke:#d6355a;}</style></defs><g id="Layer_2" data-name="Layer 2"><g id="Layer_1-2" data-name="Layer 1"><path class="cls-1" stroke="#f6d7cc" stroke-width="0.6" d="M157.5,77.5c-6,4.39-13.54,24.29-25.28,37.46C118.44,130.4,95.52,134,89,134" transform="translate(-63)"/><path class="cls-2" d="M213.94,86.25l27.44.62c5.51.13,9.91,4.94,9.91,10.83h0v27.65c0,10.66,2.22,18.22-7.75,18.15l-30.74-.21a19.24,19.24,0,0,1-17.43-12.17l-.15-.34a70.05,70.05,0,0,1-3.28-9.87C184.6,91.6,140.82,9.83,87.7,5.53a2.06,2.06,0,0,0-.26,0l-17.66.07A1.34,1.34,0,0,0,68.5,6.94L69,144.5" transform="translate(-63)"/><path class="cls-3" d="M0,94.91" transform="translate(-63)"/><path class="cls-1" stroke="#f6d7cc" stroke-width="0.6" d="M178.5,61.5C190,54,194,38,206.92,24.38,222,8.45,248.17,5.5,255.5,5.5" transform="translate(-63)"/></g></g></svg>