<svg xmlns="http://www.w3.org/2000/svg" viewBox="0 0 142.26 168.12"><defs><style>.cls-1{fill:#cddaf0;}.cls-2{fill:#fff;}.cls-3{fill:none;}.cls-4{fill:#232427;}</style></defs><g id="Layer_2" data-name="Layer 2"><g id="Layer_1-2" data-name="Layer 1"><rect class="cls-1" x="16.22" y="101.11" width="112.42" height="46.15"/><rect class="cls-2" x="14.41" y="70.75" width="122.33" height="20.31"/><polygon class="cls-3" points="110.52 11.34 126.9 22.84 122.34 7.76 110.52 11.34"/><polygon class="cls-3" points="34.48 34.38 50.92 45.9 63.48 42.09 47.05 30.57 34.48 34.38"/><polygon class="cls-3" points="72.43 22.88 88.86 34.4 101.57 30.55 85.14 19.03 72.43 22.88"/><polygon class="cls-3" points="8.88 42.13 13.46 57.25 25.54 53.59 9.11 42.06 8.88 42.13"/><polygon class="cls-2" points="135.24 24.34 7.42 63.24 7.34 63.24 0 38.88 127.89 0 135.24 24.34"/><path class="cls-4" d="M127.89,0,0,38.88,7.34,63.24h.08l127.82-38.9ZM13.16,56.11,8.59,41l.22-.07L25.24,52.45ZM50.62,44.76,34.19,33.24l12.57-3.81L63.19,41Zm37.94-11.5L72.13,21.74l12.71-3.85,16.43,11.52ZM110.22,10.2,122,6.62l4.57,15.08Z"/><path class="cls-4" d="M8.89,67.87V168.12H142.26V67.87Zm86,4.42H108L95.62,88.19H82.49Zm-39.79,0H68.36L56,88.19H42.69Zm-38.9,15.9V72.29H28.56L16.18,88.19Zm28.48,37.2a1.88,1.88,0,0,1-1.88,1.88H20.71a1.88,1.88,0,0,1-1.88-1.88V105.31a1.88,1.88,0,0,1,1.88-1.88H42.78a1.88,1.88,0,0,1,1.88,1.88Zm80.38,13c0,1.32-.86,2.62-1.91,2.62H54.43c-1,0-2-1.3-2-2.62v-1.79a1.93,1.93,0,0,1,2-2h68.7a1.83,1.83,0,0,1,1.91,2Zm0-16.26c0,1.32-.86,2.54-1.91,2.54H54.43a2.46,2.46,0,0,1-2-2.54v-1.79a2,2,0,0,1,2-2.07h68.7a1.89,1.89,0,0,1,1.91,2.07ZM135,88.19H122.14l12.38-15.9H135Z"/></g></g></svg>