<svg height="512" viewBox="0 0 64 64" width="512" xmlns="http://www.w3.org/2000/svg"><g id="Music_edit-2" data-name="Music edit"><path d="m62 40v1a4 4 0 0 1 -4 4h-52a4 4 0 0 1 -4-4v-1z" fill="#57a4ff"/><path d="m43 53h-22l4.714-4h12.572z" fill="#57a4ff"/><ellipse cx="17.5" cy="33" fill="#57a4ff" rx="2.5" ry="2"/><ellipse cx="26.5" cy="31" fill="#57a4ff" rx="2.5" ry="2"/><path d="m33 20h16v4h-16z" fill="#57a4ff"/><path d="m29 19-9 2v3l9-2z" fill="#57a4ff"/><g fill="#004fac"><path d="m58 10h-52a5.006 5.006 0 0 0 -5 5v26a5.006 5.006 0 0 0 5 5h18.889v2.388l-4.536 3.849a1 1 0 0 0 .647 1.763h22a1 1 0 0 0 .647-1.763l-4.536-3.849v-2.388h18.889a5.006 5.006 0 0 0 5-5v-26a5.006 5.006 0 0 0 -5-5zm-55 5a3 3 0 0 1 3-3h52a3 3 0 0 1 3 3v24h-58zm20.724 37 2.357-2h11.838l2.357 2zm13.387-4h-10.222v-2h10.222zm20.889-4h-52a3 3 0 0 1 -3-3h58a3 3 0 0 1 -3 3z"/><path d="m28.783 18.023-9 2a1 1 0 0 0 -.783.977v9.3a3.943 3.943 0 0 0 -1.5-.3 3.283 3.283 0 0 0 -3.5 3 3.283 3.283 0 0 0 3.5 3 3.283 3.283 0 0 0 3.5-3v-8.2l7-1.555v5.055a3.943 3.943 0 0 0 -1.5-.3 3.283 3.283 0 0 0 -3.5 3 3.283 3.283 0 0 0 3.5 3 3.283 3.283 0 0 0 3.5-3v-12a1 1 0 0 0 -1.217-.977zm-11.283 15.977c-.8 0-1.5-.468-1.5-1s.7-1 1.5-1 1.5.468 1.5 1-.7 1-1.5 1zm3.5-11.247v-.953l7-1.555v.955zm5.5 9.247c-.8 0-1.5-.468-1.5-1s.7-1 1.5-1 1.5.468 1.5 1-.7 1-1.5 1z"/><path d="m49 19h-16a1 1 0 0 0 -1 1v4a1 1 0 0 0 1 1h16a1 1 0 0 0 1-1v-4a1 1 0 0 0 -1-1zm-1 4h-14v-2h14z"/><path d="m33 28h1a1 1 0 0 0 0-2h-1a1 1 0 0 0 0 2z"/><path d="m49 26h-12a1 1 0 0 0 0 2h12a1 1 0 0 0 0-2z"/><path d="m47 32h-1a1 1 0 0 0 0 2h1a1 1 0 0 0 0-2z"/><path d="m43 32h-10a1 1 0 0 0 0 2h10a1 1 0 0 0 0-2z"/><path d="m49 29h-16a1 1 0 0 0 0 2h16a1 1 0 0 0 0-2z"/><path d="m16 15a1 1 0 0 0 -1-1h-9a1 1 0 0 0 0 2h9a1 1 0 0 0 1-1z"/><path d="m18 16h1a1 1 0 0 0 0-2h-1a1 1 0 0 0 0 2z"/></g></g></svg>