<svg id="Layer_1" data-name="Layer 1" xmlns="http://www.w3.org/2000/svg" viewBox="0 0 89.56 27.86"><defs><style>.cls-1{fill:#1d1d1b;}.cls-2{fill:#f6d7cc;}</style></defs><path class="cls-1" stroke="#f6d7cc" stroke-width="0.6" d="M246.06,356a3.84,3.84,0,0,1-1.71-.81,6.71,6.71,0,0,1-1.19-1.41.24.24,0,0,1,0-.26c.17-.3.37-.7.61-1.19l.88-1.83c.34-.73.74-1.6,1.19-2.61l1.62-3.57.72-1.63q.3-.69.54-1.29t.42-1.2l.26-.87a15.56,15.56,0,0,0-1.75.69,8.45,8.45,0,0,0-1.64,1,.3.3,0,0,1-.16.05.22.22,0,0,1-.13,0,2.12,2.12,0,0,1-.53-.48,4.07,4.07,0,0,1-.48-.67,7.39,7.39,0,0,1-.38-.74,2.45,2.45,0,0,1-.2-.72.25.25,0,0,1,.12-.23,9.91,9.91,0,0,1,1.9-.92,22.06,22.06,0,0,1,2.41-.71,23.77,23.77,0,0,1,2.64-.47,20.21,20.21,0,0,1,2.63-.17,10,10,0,0,1,2.72.35,6.42,6.42,0,0,1,2.1,1,4.34,4.34,0,0,1,1.33,1.57,4.43,4.43,0,0,1,.47,2,5.18,5.18,0,0,1-.74,2.65,7.41,7.41,0,0,1-2,2.17,9.89,9.89,0,0,1-2.88,1.47,11.2,11.2,0,0,1-3.5.54,2.91,2.91,0,0,1-1.12-.18,2.31,2.31,0,0,1-.66-.43q-1.19,2.43-1.95,4.49a35.19,35.19,0,0,0-1.27,4.23.24.24,0,0,1-.24.19Zm8.05-17.58a.27.27,0,0,1,0,.31,7.44,7.44,0,0,0-.63.91c-.25.41-.54.9-.84,1.48l-1,2-1,1.91a17.35,17.35,0,0,0,3.2-.34,10.87,10.87,0,0,0,2.76-.94,5.43,5.43,0,0,0,1.75-1.36,2.51,2.51,0,0,0,.6-1.6,2.22,2.22,0,0,0-.81-1.81,3.89,3.89,0,0,0-2.52-.7,14,14,0,0,0-1.57.09Z" transform="translate(-242.88 -333.41)"/><path class="cls-2" d="M253.83,336.17a9.46,9.46,0,0,1,2.65.34,6.23,6.23,0,0,1,2,1,4.12,4.12,0,0,1,1.7,3.4,4.91,4.91,0,0,1-.71,2.52,7.16,7.16,0,0,1-1.91,2.1,9.65,9.65,0,0,1-2.81,1.43,11,11,0,0,1-3.42.53,2.59,2.59,0,0,1-1-.16,2.65,2.65,0,0,1-.84-.61,51.68,51.68,0,0,0-2.1,4.81,34.45,34.45,0,0,0-1.28,4.26,3.5,3.5,0,0,1-1.6-.75,6,6,0,0,1-1.13-1.36c.17-.3.37-.7.62-1.2s.53-1.11.87-1.83.75-1.6,1.2-2.62l1.62-3.56c.27-.63.51-1.17.72-1.64s.38-.9.54-1.3.3-.82.43-1.22.26-.84.39-1.32a16.17,16.17,0,0,0-2.23.84,9,9,0,0,0-1.69,1,2,2,0,0,1-.47-.43,3.88,3.88,0,0,1-.46-.64c-.13-.23-.25-.46-.36-.7a2.38,2.38,0,0,1-.18-.65,9.51,9.51,0,0,1,1.86-.89,21.31,21.31,0,0,1,2.37-.71c.85-.2,1.72-.35,2.62-.47a21.57,21.57,0,0,1,2.6-.16m-3.62,9.09a17.26,17.26,0,0,0,3.67-.35,10.83,10.83,0,0,0,2.82-1,5.59,5.59,0,0,0,1.84-1.42,2.8,2.8,0,0,0,.65-1.76,2.48,2.48,0,0,0-.9-2,4.12,4.12,0,0,0-2.68-.76,14,14,0,0,0-2,.15l.31.43a9.64,9.64,0,0,0-.64.94c-.26.41-.54.91-.85,1.5s-.65,1.23-1,2-.76,1.48-1.18,2.28m3.62-9.59a20.66,20.66,0,0,0-2.66.17,22.15,22.15,0,0,0-2.67.48,19.84,19.84,0,0,0-2.43.72,10,10,0,0,0-2,.94.53.53,0,0,0-.23.46,3,3,0,0,0,.22.8c.12.27.25.52.39.77a6.25,6.25,0,0,0,.5.7,2.66,2.66,0,0,0,.6.54.48.48,0,0,0,.26.07.45.45,0,0,0,.31-.11,8.56,8.56,0,0,1,1.6-.94,13.24,13.24,0,0,1,1.26-.53l-.12.4c-.13.39-.27.79-.42,1.19s-.33.83-.53,1.28l-.72,1.63c-.62,1.36-1.16,2.55-1.61,3.57s-.86,1.88-1.2,2.6-.63,1.34-.87,1.83-.44.88-.61,1.18a.49.49,0,0,0,0,.51,6.93,6.93,0,0,0,1.23,1.46,4,4,0,0,0,1.82.87h.11a.49.49,0,0,0,.49-.39,32.85,32.85,0,0,1,1.26-4.19c.47-1.28,1.08-2.69,1.8-4.19a1.94,1.94,0,0,0,.48.27,3,3,0,0,0,1.21.2,11.65,11.65,0,0,0,3.57-.55,10.19,10.19,0,0,0,3-1.51,7.59,7.59,0,0,0,2-2.24,5.39,5.39,0,0,0,.78-2.78,4.74,4.74,0,0,0-.49-2.14,4.85,4.85,0,0,0-1.41-1.66,6.86,6.86,0,0,0-2.17-1.06,10.21,10.21,0,0,0-2.8-.36Zm.57,2.9c.41,0,.81-.06,1.21-.06a3.67,3.67,0,0,1,2.36.64,2,2,0,0,1,.72,1.62,2.25,2.25,0,0,1-.54,1.44,5.21,5.21,0,0,1-1.68,1.3,10.28,10.28,0,0,1-2.7.91,15.94,15.94,0,0,1-2.73.33l.79-1.54q.55-1.08,1-1.95c.3-.57.58-1.07.83-1.47a8.17,8.17,0,0,1,.61-.88.48.48,0,0,0,.11-.34Z" transform="translate(-242.88 -333.41)"/><path class="cls-1" stroke="#f6d7cc" stroke-width="0.6" d="M261.67,354.92a3.59,3.59,0,0,1-2.51-1.29,4.35,4.35,0,0,1-.94-2.85,7.28,7.28,0,0,1,.32-2.06,9.61,9.61,0,0,1,.9-2.06,12.36,12.36,0,0,1,1.37-1.88,9.87,9.87,0,0,1,1.73-1.52,4.92,4.92,0,0,1,2.8-1l.11,0a4.63,4.63,0,0,1,1.65,1.68h.33c.73,0,1.61.43,1.61,2.5a8.14,8.14,0,0,1-.54,3A8.57,8.57,0,0,1,267,351.9a8.8,8.8,0,0,1-2.31,1.92,9.67,9.67,0,0,1-2.92,1.09h-.08Zm4.79-10a5.56,5.56,0,0,0-1.76.91,10.27,10.27,0,0,0-1.5,1.43,10.43,10.43,0,0,0-.8,1.17,10.27,10.27,0,0,0-.65,1.28,7.55,7.55,0,0,0-.43,1.23,4.19,4.19,0,0,0-.15,1,2.87,2.87,0,0,0,.19,1,.89.89,0,0,0,.26.43,5.52,5.52,0,0,0,2-.84A6.56,6.56,0,0,0,265.2,351a8,8,0,0,0,1.07-2.17,8.35,8.35,0,0,0,.39-2.58,4.6,4.6,0,0,0-.07-.94A2.12,2.12,0,0,0,266.46,344.93Z" transform="translate(-242.88 -333.41)"/><path class="cls-2" d="M265.34,342.48a4.37,4.37,0,0,1,1.62,1.7h.47c.91,0,1.36.75,1.36,2.25a7.66,7.66,0,0,1-.53,2.87,8.56,8.56,0,0,1-3.71,4.32,9.23,9.23,0,0,1-2.85,1.07,3.37,3.37,0,0,1-2.35-1.2,4,4,0,0,1-.88-2.69,6.8,6.8,0,0,1,.31-2,9.09,9.09,0,0,1,.88-2A11.22,11.22,0,0,1,261,345a9.76,9.76,0,0,1,1.68-1.49,4.76,4.76,0,0,1,2.66-1m-3.75,11.21a5.76,5.76,0,0,0,2.13-.9,6.58,6.58,0,0,0,1.68-1.65,8,8,0,0,0,1.11-2.23,8.56,8.56,0,0,0,.4-2.66,5,5,0,0,0-.08-1,1.66,1.66,0,0,0-.26-.62,5.65,5.65,0,0,0-2,1,9.81,9.81,0,0,0-1.54,1.46,12,12,0,0,0-.82,1.2,10.8,10.8,0,0,0-.67,1.31,8,8,0,0,0-.44,1.27,4.22,4.22,0,0,0-.16,1.09,3,3,0,0,0,.21,1.11c.14.35.29.55.46.6M265.34,342a5.27,5.27,0,0,0-2.95,1.07,10,10,0,0,0-1.76,1.57,11.14,11.14,0,0,0-1.4,1.91,9.69,9.69,0,0,0-.93,2.12,7.42,7.42,0,0,0-.33,2.13,4.62,4.62,0,0,0,1,3,3.89,3.89,0,0,0,2.69,1.38h.15a9.85,9.85,0,0,0,3-1.13,9.22,9.22,0,0,0,2.37-2,9.09,9.09,0,0,0,1.56-2.61,8.38,8.38,0,0,0,.56-3c0-2.27-1-2.75-1.86-2.75h-.21a4.47,4.47,0,0,0-1.66-1.63.59.59,0,0,0-.22,0Zm-3.63,11.17a1.26,1.26,0,0,1-.11-.25,2.39,2.39,0,0,1-.18-.92,4.19,4.19,0,0,1,.14-1,8.11,8.11,0,0,1,.42-1.19,9.84,9.84,0,0,1,.64-1.25,11,11,0,0,1,.78-1.15,9.72,9.72,0,0,1,1.46-1.38,5.12,5.12,0,0,1,1.45-.8l0,.13a4,4,0,0,1,.07.88,8.24,8.24,0,0,1-.38,2.51,7.57,7.57,0,0,1-1,2.09,6,6,0,0,1-1.55,1.52,5.41,5.41,0,0,1-1.73.78Z" transform="translate(-242.88 -333.41)"/><path class="cls-1" stroke="#f6d7cc" stroke-width="0.6" d="M271.5,354.89a1.94,1.94,0,0,1-.62-.17,5.39,5.39,0,0,1-.68-.34,5,5,0,0,1-.61-.43,1.32,1.32,0,0,1-.41-.51.22.22,0,0,1,0-.14c.08-.47.24-1.09.45-1.85s.48-1.59.77-2.44.6-1.72.93-2.59.65-1.65,1-2.34a11.47,11.47,0,0,1,.61-1.19,3.39,3.39,0,0,1,.61-.76.23.23,0,0,1,.17-.07h0a6,6,0,0,1,.79.18,5.24,5.24,0,0,1,.78.3c.25.12.48.24.68.36a2.24,2.24,0,0,1,.48.39.26.26,0,0,1,0,.34,8.91,8.91,0,0,0-1.2,1.7,15.78,15.78,0,0,0-.72,1.6c.63-.55,1.21-1.08,1.72-1.58a18,18,0,0,0,2-2.32,1.07,1.07,0,0,1,.75-.23,2.43,2.43,0,0,1,.77.12,1.14,1.14,0,0,1,.6.4.26.26,0,0,1,0,.24,5.89,5.89,0,0,0-.44,2.18,2.87,2.87,0,0,0,.29,1.45.23.23,0,0,1,0,.18,1.68,1.68,0,0,1-.4.66,7,7,0,0,1-.74.8.24.24,0,0,1-.17.07.19.19,0,0,1-.1,0,4.33,4.33,0,0,1-1.32-1,4,4,0,0,1-.73-1.08,15.82,15.82,0,0,0-1.78,1.36,8.39,8.39,0,0,0-1.42,1.63,9.7,9.7,0,0,0-1,2.07,28.25,28.25,0,0,0-.81,2.83.25.25,0,0,1-.24.2Z" transform="translate(-242.88 -333.41)"/><path class="cls-2" d="M273.67,342.31a4.45,4.45,0,0,1,.75.17,4.85,4.85,0,0,1,.75.29,5.42,5.42,0,0,1,.64.34,2.17,2.17,0,0,1,.44.35,9.42,9.42,0,0,0-1.23,1.75,18.87,18.87,0,0,0-1.07,2.52c.93-.76,1.75-1.5,2.47-2.2a18.56,18.56,0,0,0,2-2.36.89.89,0,0,1,.54-.12,2.38,2.38,0,0,1,.7.11.84.84,0,0,1,.46.3,6.06,6.06,0,0,0-.46,2.28,3.07,3.07,0,0,0,.33,1.59,1.81,1.81,0,0,1-.35.55,6.41,6.41,0,0,1-.71.77,4.25,4.25,0,0,1-1.23-.93,3.71,3.71,0,0,1-.8-1.28,17.4,17.4,0,0,0-2.07,1.55,8.32,8.32,0,0,0-1.46,1.68,9.72,9.72,0,0,0-1,2.12,28.26,28.26,0,0,0-.81,2.86,2.21,2.21,0,0,1-.56-.16,6.36,6.36,0,0,1-.64-.32,4.54,4.54,0,0,1-.58-.41,1.18,1.18,0,0,1-.34-.41c.09-.46.24-1.08.45-1.84s.47-1.56.77-2.42.6-1.72.92-2.58.65-1.64,1-2.33a11,11,0,0,1,.59-1.16,3.17,3.17,0,0,1,.57-.71m0-.5a.51.51,0,0,0-.34.13,3.85,3.85,0,0,0-.65.82,10.22,10.22,0,0,0-.63,1.22c-.31.69-.64,1.48-1,2.35s-.65,1.75-.94,2.6-.55,1.68-.77,2.45-.37,1.4-.46,1.88a.45.45,0,0,0,0,.28,1.58,1.58,0,0,0,.48.6,4.53,4.53,0,0,0,.64.45,6.78,6.78,0,0,0,.71.36,2.46,2.46,0,0,0,.7.19h0a.49.49,0,0,0,.48-.39c.26-1.08.53-2,.8-2.8a9.48,9.48,0,0,1,1-2,7.9,7.9,0,0,1,1.37-1.58,16.4,16.4,0,0,1,1.53-1.18,4.38,4.38,0,0,0,.64.88,4.53,4.53,0,0,0,1.39,1,.54.54,0,0,0,.21,0,.48.48,0,0,0,.34-.14,6.62,6.62,0,0,0,.77-.82,1.72,1.72,0,0,0,.44-.78.44.44,0,0,0-.07-.35,2.63,2.63,0,0,1-.25-1.32,5.65,5.65,0,0,1,.42-2.09.49.49,0,0,0,0-.47,1.36,1.36,0,0,0-.73-.49,2.7,2.7,0,0,0-.85-.14,1.37,1.37,0,0,0-.85.23l-.1.1a17.48,17.48,0,0,1-1.94,2.29c-.28.27-.57.55-.88.83.09-.2.18-.38.27-.55a8.82,8.82,0,0,1,1.16-1.65.51.51,0,0,0,0-.68,3.28,3.28,0,0,0-.54-.43,6.48,6.48,0,0,0-.7-.38c-.27-.12-.54-.22-.81-.31a5.75,5.75,0,0,0-.83-.19Z" transform="translate(-242.88 -333.41)"/><path class="cls-1" stroke="#f6d7cc" stroke-width="0.6" d="M284.82,355.17a4,4,0,0,1-1.38-.25,5.93,5.93,0,0,1-1.23-.63,4.24,4.24,0,0,1-.92-.86,1.7,1.7,0,0,1-.39-1,7.82,7.82,0,0,1,.18-1.5,18.81,18.81,0,0,1,.48-1.94c.21-.69.45-1.42.73-2.17s.48-1.27.75-1.9H282a.21.21,0,0,1-.18-.09,1.6,1.6,0,0,1-.29-.72,3.67,3.67,0,0,1-.11-.86.24.24,0,0,1,.25-.25h0a8,8,0,0,0,1.26.1h1c.24-.44.5-.87.77-1.3s.6-.9.89-1.29a9.58,9.58,0,0,1,.82-1,2.87,2.87,0,0,1,.64-.57.24.24,0,0,1,.12,0,3.51,3.51,0,0,1,.71.09,7.48,7.48,0,0,1,.84.22c.28.09.54.18.77.28a1.74,1.74,0,0,1,.55.35.25.25,0,0,1,0,.33c-.51.6-.95,1.16-1.31,1.67s-.61.87-.94,1.38h.58a9.24,9.24,0,0,0,1-.07h0a.27.27,0,0,1,.17.06,1.36,1.36,0,0,1,.27.39,1.27,1.27,0,0,1,.09.47.24.24,0,0,1-.16.23,9.14,9.14,0,0,1-3,.47c-.39.72-.75,1.44-1.07,2.15s-.61,1.49-.84,2.18a16.23,16.23,0,0,0-.53,2,7.93,7.93,0,0,0-.19,1.63c0,.75.34.89.63.94a6.89,6.89,0,0,0,1.35-.35,4.76,4.76,0,0,0,1.18-.64.27.27,0,0,1,.15-.05h0a.25.25,0,0,1,.16.11,1.16,1.16,0,0,1,.23.46.27.27,0,0,1-.05.19,3.14,3.14,0,0,1-.58.55,7.55,7.55,0,0,1-.83.57,7,7,0,0,1-.88.48,2.57,2.57,0,0,1-.69.24Z" transform="translate(-242.88 -333.41)"/><path class="cls-2" d="M287.14,339.12a3.87,3.87,0,0,1,.66.08c.26.06.54.13.81.22s.53.18.75.27a1.46,1.46,0,0,1,.46.29c-.51.61-1,1.17-1.33,1.68s-.77,1.11-1.2,1.78h1a9.77,9.77,0,0,0,1.07-.07.81.81,0,0,1,.21.3.94.94,0,0,1,.07.37,9.17,9.17,0,0,1-3.07.45c-.43.77-.81,1.54-1.14,2.3s-.62,1.5-.86,2.2a18.89,18.89,0,0,0-.54,2,8.38,8.38,0,0,0-.19,1.68c0,.71.28,1.1.85,1.18a5.86,5.86,0,0,0,1.47-.36,4.74,4.74,0,0,0,1.24-.67,1.18,1.18,0,0,1,.18.36,2.61,2.61,0,0,1-.53.5c-.25.19-.52.38-.81.56a9.22,9.22,0,0,1-.85.47,2.33,2.33,0,0,1-.62.21,3.68,3.68,0,0,1-1.29-.24,5.69,5.69,0,0,1-1.18-.6,3.69,3.69,0,0,1-.86-.8,1.5,1.5,0,0,1-.34-.88,8.08,8.08,0,0,1,.17-1.45,17.92,17.92,0,0,1,.48-1.92c.2-.68.45-1.4.72-2.16s.58-1.5.9-2.23H282a1.63,1.63,0,0,1-.23-.61,3.78,3.78,0,0,1-.1-.81,8.28,8.28,0,0,0,1.29.1H284q.39-.72.84-1.41c.3-.47.6-.9.88-1.29a11.48,11.48,0,0,1,.8-1,2.87,2.87,0,0,1,.58-.52m0-.5a.54.54,0,0,0-.25.06,3.41,3.41,0,0,0-.7.62,11.52,11.52,0,0,0-.83,1c-.3.4-.6.84-.9,1.3s-.49.79-.71,1.19h-.84a8.66,8.66,0,0,1-1.22-.09h-.07a.5.5,0,0,0-.33.12.52.52,0,0,0-.17.38,4.66,4.66,0,0,0,.11.91,1.85,1.85,0,0,0,.35.84.5.5,0,0,0,.37.17h.71c-.21.52-.42,1-.61,1.56-.27.75-.52,1.49-.73,2.19a18.68,18.68,0,0,0-.49,2,8.28,8.28,0,0,0-.18,1.55,2,2,0,0,0,.44,1.18,4.1,4.1,0,0,0,1,.91,5.74,5.74,0,0,0,1.28.66,4.24,4.24,0,0,0,1.47.27h.06a2.75,2.75,0,0,0,.77-.26,8.11,8.11,0,0,0,.9-.49,9.72,9.72,0,0,0,.85-.59,2.92,2.92,0,0,0,.64-.61.46.46,0,0,0,.08-.38,1.38,1.38,0,0,0-.26-.56.5.5,0,0,0-.33-.2h-.08a.54.54,0,0,0-.3.1A4.61,4.61,0,0,1,286,353a5.85,5.85,0,0,1-1.28.32c-.16,0-.36-.13-.36-.68a8,8,0,0,1,.18-1.58,17.87,17.87,0,0,1,.53-1.94c.23-.69.51-1.41.83-2.16s.63-1.33,1-2a9.37,9.37,0,0,0,2.94-.48.5.5,0,0,0,.33-.47,1.56,1.56,0,0,0-.11-.57,1.33,1.33,0,0,0-.33-.47.47.47,0,0,0-.34-.13h-.06a8.72,8.72,0,0,1-1,.07h-.12c.24-.36.47-.69.68-1,.36-.5.8-1.05,1.3-1.64a.49.49,0,0,0,0-.66,1.68,1.68,0,0,0-.63-.42c-.24-.1-.51-.2-.8-.29s-.58-.17-.86-.23a4,4,0,0,0-.76-.09Z" transform="translate(-242.88 -333.41)"/><path class="cls-1" stroke="#f6d7cc" stroke-width="0.6" d="M290.93,361l-.08,0a1.41,1.41,0,0,1-.94-1.1,1.21,1.21,0,0,0-.74-.88.24.24,0,0,1-.13-.26c.13-.82.29-1.65.46-2.48s.39-1.78.66-2.85.6-2.3,1-3.72.86-2.95,1.44-4.82h-1a4.5,4.5,0,0,0-.9.09h-.05a.27.27,0,0,1-.17-.06.93.93,0,0,1-.23-.36,1,1,0,0,1-.08-.4.25.25,0,0,1,.16-.24,9.16,9.16,0,0,1,1.1-.26c.49-.1,1-.18,1.61-.26a21.72,21.72,0,0,1,1.39-3.17,13.56,13.56,0,0,1,1.76-2.53,7.74,7.74,0,0,1,2-1.63,4.63,4.63,0,0,1,2.21-.59,6.06,6.06,0,0,1,.62,0l.34,0a2.69,2.69,0,0,1,.61-.28,2.31,2.31,0,0,1,.75-.15,1.92,1.92,0,0,1,.94.35.26.26,0,0,1,.07.35,8.08,8.08,0,0,0-.42.87,10.16,10.16,0,0,0-.37,1.1,5.32,5.32,0,0,1-1.46,2.44.28.28,0,0,1-.15,0c-.35,0-.54-.31-.56-.93a4.75,4.75,0,0,0-.15-.93,1.64,1.64,0,0,1-.14-.39,2.17,2.17,0,0,1-.05-.49,3,3,0,0,1,0-.38c0-.07,0-.18.05-.32a2,2,0,0,0-.49.35,7,7,0,0,0-1.07,1.37,20,20,0,0,0-1.16,2.16c-.35.74-.69,1.55-1,2.43h1.81a.27.27,0,0,1,.17.06,1.23,1.23,0,0,1,.3.64,5.8,5.8,0,0,1,.12.85.26.26,0,0,1-.07.19.25.25,0,0,1-.18.08h-2.67q-.94,2.61-1.77,5T293,354.49c-.44,1.38-.83,2.62-1.14,3.71s-.55,2-.68,2.62a.23.23,0,0,1-.13.16A.21.21,0,0,1,290.93,361Z" transform="translate(-242.88 -333.41)"/><path class="cls-2" d="M302.75,335.37a1.63,1.63,0,0,1,.8.32,6,6,0,0,0-.44.91,10.57,10.57,0,0,0-.38,1.12,5,5,0,0,1-1.37,2.3c-.19,0-.29-.23-.31-.69a4.56,4.56,0,0,0-.16-1,2.36,2.36,0,0,1-.14-.39,2.33,2.33,0,0,1,0-.43,2.6,2.6,0,0,1,0-.35c0-.13.05-.36.1-.68a1.54,1.54,0,0,0-1,.5,8,8,0,0,0-1.11,1.42,22.31,22.31,0,0,0-1.17,2.18,28.84,28.84,0,0,0-1.13,2.79h2.16a.93.93,0,0,1,.22.5,5.4,5.4,0,0,1,.12.82h-2.84q-1,2.7-1.83,5.16t-1.52,4.54c-.45,1.39-.83,2.62-1.15,3.72s-.55,2-.69,2.64a1.14,1.14,0,0,1-.77-.92,1.47,1.47,0,0,0-.88-1.05c.14-.82.29-1.64.47-2.47s.39-1.78.65-2.84.61-2.3,1-3.71.92-3.13,1.54-5.14H291.6a5,5,0,0,0-1,.09.62.62,0,0,1-.17-.26.94.94,0,0,1-.06-.31,6.65,6.65,0,0,1,1.06-.25c.53-.11,1.11-.2,1.75-.28a20.34,20.34,0,0,1,1.42-3.28,13.37,13.37,0,0,1,1.73-2.48,7.06,7.06,0,0,1,2-1.58,4.37,4.37,0,0,1,2.09-.56,5.47,5.47,0,0,1,.59,0l.44,0a2,2,0,0,1,.62-.3,2.11,2.11,0,0,1,.67-.14m0-.5a2.8,2.8,0,0,0-.83.16,3.37,3.37,0,0,0-.6.27l-.23,0c-.22,0-.44,0-.66,0a5,5,0,0,0-2.33.61,7.94,7.94,0,0,0-2.09,1.7,13.24,13.24,0,0,0-1.8,2.57,21.16,21.16,0,0,0-1.35,3.06l-1.48.24a7.61,7.61,0,0,0-1.14.28.5.5,0,0,0-.32.47,1.5,1.5,0,0,0,.09.49,1.36,1.36,0,0,0,.3.45.48.48,0,0,0,.34.13h.1a4.8,4.8,0,0,1,.85-.08h.67c-.54,1.77-1,3.25-1.34,4.5-.4,1.41-.74,2.66-1,3.73s-.49,2-.66,2.86-.33,1.67-.47,2.48a.5.5,0,0,0,.26.53c.55.29.6.59.61.69a1.65,1.65,0,0,0,1.1,1.3.35.35,0,0,0,.17,0,.55.55,0,0,0,.25-.07.51.51,0,0,0,.24-.33c.14-.66.36-1.53.68-2.6s.7-2.35,1.14-3.71,1-2.9,1.52-4.53,1.11-3.16,1.71-4.82H299a.48.48,0,0,0,.36-.16.47.47,0,0,0,.14-.37,5.27,5.27,0,0,0-.13-.9A1.42,1.42,0,0,0,299,343a.5.5,0,0,0-.33-.12h-1.45c.28-.74.57-1.44.87-2.08a19.16,19.16,0,0,1,1.15-2.12,6.59,6.59,0,0,1,1-1.32h0a1.09,1.09,0,0,0,0,.17,2.15,2.15,0,0,0,.06.55,2.55,2.55,0,0,0,.15.44,4.63,4.63,0,0,1,.13.83c0,1,.52,1.17.81,1.17a.5.5,0,0,0,.29-.09,5.42,5.42,0,0,0,1.55-2.54,11.18,11.18,0,0,1,.38-1.11,5,5,0,0,1,.4-.83.51.51,0,0,0-.16-.69,2.07,2.07,0,0,0-1.07-.39Z" transform="translate(-242.88 -333.41)"/><path class="cls-1" stroke="#f6d7cc" stroke-width="0.6" d="M301.26,354.92a3.61,3.61,0,0,1-2.52-1.29,4.35,4.35,0,0,1-.94-2.85,7,7,0,0,1,.33-2.06,9.14,9.14,0,0,1,.9-2.06,11.13,11.13,0,0,1,1.37-1.88,9.47,9.47,0,0,1,1.72-1.52,4.92,4.92,0,0,1,2.8-1l.11,0a4.48,4.48,0,0,1,1.65,1.68H307c.74,0,1.62.43,1.62,2.5a8.15,8.15,0,0,1-.55,3,8.76,8.76,0,0,1-1.51,2.53,9,9,0,0,1-2.31,1.92,9.73,9.73,0,0,1-2.93,1.09h-.07Zm4.78-10a5.4,5.4,0,0,0-1.75.91,9.35,9.35,0,0,0-1.5,1.43,10,10,0,0,0-.8,1.17,9.15,9.15,0,0,0-.66,1.28,8.22,8.22,0,0,0-.43,1.23,4.66,4.66,0,0,0-.14,1,2.67,2.67,0,0,0,.19,1c.11.29.2.4.26.43a5.68,5.68,0,0,0,2-.84,6.52,6.52,0,0,0,1.61-1.58,7.45,7.45,0,0,0,1.07-2.17,8.35,8.35,0,0,0,.39-2.58,4.67,4.67,0,0,0-.07-.94A1.55,1.55,0,0,0,306,344.93Z" transform="translate(-242.88 -333.41)"/><path class="cls-2" d="M304.92,342.48a4.37,4.37,0,0,1,1.62,1.7H307c.91,0,1.37.75,1.37,2.25a7.86,7.86,0,0,1-.53,2.87,8.51,8.51,0,0,1-3.72,4.32,9.23,9.23,0,0,1-2.85,1.07,3.39,3.39,0,0,1-2.35-1.2,4.09,4.09,0,0,1-.88-2.69,7.15,7.15,0,0,1,.31-2,9.09,9.09,0,0,1,.88-2,11.83,11.83,0,0,1,1.34-1.84,9.76,9.76,0,0,1,1.68-1.49,4.78,4.78,0,0,1,2.66-1m-3.74,11.21a5.91,5.91,0,0,0,2.13-.9,6.71,6.71,0,0,0,1.67-1.65,7.51,7.51,0,0,0,1.11-2.23,8.56,8.56,0,0,0,.4-2.66,5.17,5.17,0,0,0-.07-1,1.84,1.84,0,0,0-.26-.62,5.69,5.69,0,0,0-2,1,10.19,10.19,0,0,0-1.53,1.46,10.6,10.6,0,0,0-.83,1.2,10.8,10.8,0,0,0-.67,1.31,8,8,0,0,0-.44,1.27,4.64,4.64,0,0,0-.15,1.09,3.21,3.21,0,0,0,.2,1.11c.14.35.29.55.47.6M304.92,342a5.22,5.22,0,0,0-2.94,1.07,9.68,9.68,0,0,0-1.77,1.57,11.7,11.7,0,0,0-1.4,1.91,9.2,9.2,0,0,0-.92,2.12,7.44,7.44,0,0,0-.34,2.13,4.57,4.57,0,0,0,1,3,3.87,3.87,0,0,0,2.68,1.38h.15a9.85,9.85,0,0,0,3-1.13,8.89,8.89,0,0,0,3.93-4.57,8.22,8.22,0,0,0,.57-3c0-2.27-1-2.75-1.87-2.75h-.2a4.56,4.56,0,0,0-1.67-1.63.54.54,0,0,0-.22,0Zm-3.63,11.17a1.26,1.26,0,0,1-.11-.25A2.39,2.39,0,0,1,301,352a3.71,3.71,0,0,1,.14-1,7,7,0,0,1,.41-1.19,9.84,9.84,0,0,1,.64-1.25,8.17,8.17,0,0,1,2.24-2.53,5,5,0,0,1,1.46-.8l0,.13a4.87,4.87,0,0,1,.06.88,8.24,8.24,0,0,1-.37,2.51,7.57,7.57,0,0,1-1,2.09,6.08,6.08,0,0,1-1.56,1.52,5.32,5.32,0,0,1-1.73.78Z" transform="translate(-242.88 -333.41)"/><path class="cls-1" stroke="#f6d7cc" stroke-width="0.6" d="M311.75,355.83a2.46,2.46,0,0,1-.69-.19.86.86,0,0,1-.46-.41,1.15,1.15,0,0,0-.23-.27,2.39,2.39,0,0,0-.38-.32,1.46,1.46,0,0,1-.49-.9,5.91,5.91,0,0,1-.16-1.45,12.28,12.28,0,0,1,.55-3c.36-1.28.88-2.78,1.53-4.47a71.31,71.31,0,0,1,3-6.78,21.63,21.63,0,0,1,2.78-4.27.27.27,0,0,1,.19-.08h0a3.76,3.76,0,0,1,.82.26c.3.13.61.27.9.43a6.84,6.84,0,0,1,.82.48,2.24,2.24,0,0,1,.51.44.26.26,0,0,1,0,.32,29.65,29.65,0,0,0-3.5,4.71,37.77,37.77,0,0,0-2.77,5.8,43.05,43.05,0,0,0-1.64,5.07,16,16,0,0,0-.56,3.72v.5a.62.62,0,0,0,0,.13.22.22,0,0,1,0,.23.27.27,0,0,1-.19.08Z" transform="translate(-242.88 -333.41)"/><path class="cls-2" d="M317.41,333.91a3.08,3.08,0,0,1,.76.24c.3.13.6.27.89.42a8.24,8.24,0,0,1,.79.47,2.23,2.23,0,0,1,.45.38,30.22,30.22,0,0,0-3.54,4.75A37.85,37.85,0,0,0,314,346a41.21,41.21,0,0,0-1.65,5.1,16,16,0,0,0-.57,3.78v.5a1.23,1.23,0,0,0,0,.19,2.07,2.07,0,0,1-.62-.17.63.63,0,0,1-.33-.28,1.39,1.39,0,0,0-.29-.35,2.85,2.85,0,0,0-.41-.35,1.34,1.34,0,0,1-.39-.76,5.72,5.72,0,0,1-.15-1.38,11.74,11.74,0,0,1,.54-3c.36-1.27.87-2.76,1.52-4.45a72.07,72.07,0,0,1,3-6.76,21,21,0,0,1,2.75-4.21m0-.5a.52.52,0,0,0-.38.17,21.73,21.73,0,0,0-2.81,4.31,74.09,74.09,0,0,0-3,6.8c-.66,1.7-1.17,3.22-1.54,4.5a12,12,0,0,0-.56,3.1,6.4,6.4,0,0,0,.17,1.51,1.6,1.6,0,0,0,.61,1.05,3.1,3.1,0,0,1,.32.28,2,2,0,0,1,.19.21,1.1,1.1,0,0,0,.57.53,2.7,2.7,0,0,0,.77.21h.06a.5.5,0,0,0,.38-.17.52.52,0,0,0,.11-.46.13.13,0,0,1,0-.06v-.5a15.45,15.45,0,0,1,.55-3.66,45.22,45.22,0,0,1,1.63-5.05,38.06,38.06,0,0,1,2.75-5.75,28.62,28.62,0,0,1,3.48-4.67.5.5,0,0,0,0-.63,2.14,2.14,0,0,0-.57-.5,6.21,6.21,0,0,0-.84-.5c-.3-.16-.61-.31-.92-.44a3.4,3.4,0,0,0-.88-.27Z" transform="translate(-242.88 -333.41)"/><path class="cls-1" stroke="#f6d7cc" stroke-width="0.6" d="M317.61,354.51a1.28,1.28,0,0,1-.5-.14,2.46,2.46,0,0,1-.69-.4,3.09,3.09,0,0,1-.64-.7,1.83,1.83,0,0,1-.3-1,4.43,4.43,0,0,1,0-.57c0-.22.08-.51.15-.88s.16-.8.27-1.31.25-1.13.43-1.86a7.8,7.8,0,0,1,.23-.79,9,9,0,0,1,.5-1.14,7,7,0,0,1,.74-1.18,3,3,0,0,1,1.12-.9l.1,0h.05a5.19,5.19,0,0,1,1.23.51,4.09,4.09,0,0,1,1.32,1.17.26.26,0,0,1,0,.32,7.82,7.82,0,0,0-1,1.21,11.18,11.18,0,0,0-.71,1.27c-.21.44-.41.9-.59,1.37s-.38,1-.61,1.52-.35.9-.51,1.36a4.67,4.67,0,0,0-.24,1.17c0,.29,0,.49,0,.62A.41.41,0,0,1,317.61,354.51Zm3.79-11.81a1.26,1.26,0,0,1-.67-.31.8.8,0,0,1-.32-.58,2,2,0,0,1,0-.37,1.2,1.2,0,0,1-.18-.34,1.45,1.45,0,0,1-.1-.52,3.6,3.6,0,0,1,.07-.63c0-.25.1-.52.17-.82s.16-.6.26-.92.21-.61.32-.87a.24.24,0,0,1,.23-.15,2.49,2.49,0,0,1,.84.17,6.56,6.56,0,0,1,.95.42,7.18,7.18,0,0,1,.89.58,3.79,3.79,0,0,1,.64.6.25.25,0,0,1,0,.34l-.74.73c-.31.3-.6.63-.89,1s-.56.66-.8,1-.39.53-.44.61a.25.25,0,0,1-.22.13Z" transform="translate(-242.88 -333.41)"/><path class="cls-2" d="M321.23,337.44a2.52,2.52,0,0,1,.76.15,6.57,6.57,0,0,1,.91.41,6.66,6.66,0,0,1,.86.55,3.6,3.6,0,0,1,.59.57c-.19.17-.44.42-.75.73s-.61.64-.9,1-.56.67-.8,1a6.53,6.53,0,0,0-.47.64,1,1,0,0,1-.54-.25.56.56,0,0,1-.23-.39,2.07,2.07,0,0,1,.08-.44.89.89,0,0,1-.22-.36,1.23,1.23,0,0,1-.09-.43,4,4,0,0,1,.06-.59c0-.24.1-.51.17-.8a8.9,8.9,0,0,1,.26-.9c.1-.31.2-.6.31-.85m-2.17,6.38a5.13,5.13,0,0,1,1.16.49,3.82,3.82,0,0,1,1.24,1.1,7.68,7.68,0,0,0-1,1.24,12.72,12.72,0,0,0-.73,1.3c-.21.45-.41.91-.59,1.39s-.38,1-.61,1.51-.36.91-.51,1.38a4.83,4.83,0,0,0-.26,1.24c0,.29,0,.49,0,.61s-.06.18-.15.18a1.61,1.61,0,0,1-.41-.12,2.46,2.46,0,0,1-.63-.37,2.57,2.57,0,0,1-.58-.64,1.6,1.6,0,0,1-.26-.91,4,4,0,0,1,0-.54c0-.21.07-.5.14-.86s.16-.8.27-1.31.26-1.13.43-1.85a7.12,7.12,0,0,1,.23-.77,8.47,8.47,0,0,1,.48-1.11,7.75,7.75,0,0,1,.72-1.14,2.6,2.6,0,0,1,1-.82m2.17-6.88a.5.5,0,0,0-.47.31c-.1.27-.21.56-.32.88s-.19.64-.27.94-.13.58-.17.84a3.89,3.89,0,0,0-.07.67,1.74,1.74,0,0,0,.12.61,1.4,1.4,0,0,0,.15.3,1.33,1.33,0,0,0,0,.32,1,1,0,0,0,.4.77,1.6,1.6,0,0,0,.8.37h.07a.49.49,0,0,0,.44-.26,4.4,4.4,0,0,1,.42-.57c.24-.3.5-.62.79-1s.57-.65.88-1l.73-.72a.49.49,0,0,0,.05-.67,3.56,3.56,0,0,0-.68-.65,5.62,5.62,0,0,0-.92-.6,6.13,6.13,0,0,0-1-.44,3,3,0,0,0-.92-.18Zm-2.17,6.38a.46.46,0,0,0-.2.05,3.12,3.12,0,0,0-1.22,1,8.53,8.53,0,0,0-.77,1.22,8.14,8.14,0,0,0-.5,1.18,7.1,7.1,0,0,0-.25.83c-.17.71-.31,1.33-.43,1.84s-.2,1-.27,1.32-.12.68-.15.9,0,.44,0,.6a2.11,2.11,0,0,0,.34,1.19,3.33,3.33,0,0,0,.69.75,3,3,0,0,0,.76.45,1.66,1.66,0,0,0,.59.15.65.65,0,0,0,.65-.64c0-.13,0-.35,0-.65a4.2,4.2,0,0,1,.23-1.08c.15-.46.32-.91.5-1.34s.44-1.05.62-1.53.37-.92.57-1.35a12.58,12.58,0,0,1,.7-1.25,8.49,8.49,0,0,1,.93-1.17.49.49,0,0,0,0-.64,4.31,4.31,0,0,0-1.4-1.23,5.44,5.44,0,0,0-1.29-.55Z" transform="translate(-242.88 -333.41)"/><path class="cls-1" stroke="#f6d7cc" stroke-width="0.6" d="M324.81,354.92a3.59,3.59,0,0,1-2.51-1.29,4.33,4.33,0,0,1-.94-2.85,7.28,7.28,0,0,1,.32-2.06,10.14,10.14,0,0,1,.9-2.06,11.78,11.78,0,0,1,1.38-1.88,9.47,9.47,0,0,1,1.72-1.52,4.92,4.92,0,0,1,2.8-1l.11,0a4.48,4.48,0,0,1,1.65,1.68h.33c.74,0,1.62.43,1.62,2.5a8.15,8.15,0,0,1-.55,3,8.76,8.76,0,0,1-1.51,2.53,9,9,0,0,1-2.31,1.92,9.73,9.73,0,0,1-2.93,1.09h-.08Zm4.79-10a5.56,5.56,0,0,0-1.76.91,9.7,9.7,0,0,0-1.49,1.43,10.08,10.08,0,0,0-.81,1.17,10.27,10.27,0,0,0-.65,1.28,8.22,8.22,0,0,0-.43,1.23,4.19,4.19,0,0,0-.15,1,2.87,2.87,0,0,0,.19,1,1,1,0,0,0,.26.43,5.52,5.52,0,0,0,2-.84,6.56,6.56,0,0,0,1.62-1.58,7.71,7.71,0,0,0,1.07-2.17,8.35,8.35,0,0,0,.39-2.58,4.67,4.67,0,0,0-.07-.94A1.55,1.55,0,0,0,329.6,344.93Z" transform="translate(-242.88 -333.41)"/><path class="cls-2" d="M328.48,342.48a4.37,4.37,0,0,1,1.62,1.7h.47c.91,0,1.37.75,1.37,2.25a7.86,7.86,0,0,1-.53,2.87,8.74,8.74,0,0,1-1.47,2.46,8.47,8.47,0,0,1-2.25,1.86,9.23,9.23,0,0,1-2.85,1.07,3.39,3.39,0,0,1-2.35-1.2,4.09,4.09,0,0,1-.88-2.69,7.15,7.15,0,0,1,.31-2,9.09,9.09,0,0,1,.88-2,11.83,11.83,0,0,1,1.34-1.84,9.76,9.76,0,0,1,1.68-1.49,4.78,4.78,0,0,1,2.66-1m-3.74,11.21a5.79,5.79,0,0,0,2.12-.9,6.58,6.58,0,0,0,1.68-1.65,8,8,0,0,0,1.11-2.23,8.56,8.56,0,0,0,.4-2.66,4.36,4.36,0,0,0-.08-1,1.65,1.65,0,0,0-.25-.62,5.61,5.61,0,0,0-2,1,9.73,9.73,0,0,0-1.53,1.46,10.6,10.6,0,0,0-.83,1.2,10.8,10.8,0,0,0-.67,1.31,8,8,0,0,0-.44,1.27,4.7,4.7,0,0,0-.16,1.09,3,3,0,0,0,.21,1.11c.14.35.29.55.47.6M328.48,342a5.27,5.27,0,0,0-3,1.07,10,10,0,0,0-1.76,1.57,11.14,11.14,0,0,0-1.4,1.91,9.69,9.69,0,0,0-.93,2.12,7.42,7.42,0,0,0-.33,2.13,4.55,4.55,0,0,0,1,3,3.87,3.87,0,0,0,2.68,1.38h.15a9.85,9.85,0,0,0,3-1.13,9.27,9.27,0,0,0,2.38-2,9.06,9.06,0,0,0,1.55-2.61,8.22,8.22,0,0,0,.57-3c0-2.27-1-2.75-1.87-2.75h-.2A4.56,4.56,0,0,0,328.7,342a.59.59,0,0,0-.22,0Zm-3.63,11.17a1.26,1.26,0,0,1-.11-.25,2.39,2.39,0,0,1-.18-.92,4.19,4.19,0,0,1,.14-1,8.11,8.11,0,0,1,.42-1.19,9.84,9.84,0,0,1,.64-1.25,9.7,9.7,0,0,1,.79-1.15A9.17,9.17,0,0,1,328,346a5.12,5.12,0,0,1,1.45-.8.28.28,0,0,1,0,.13,4,4,0,0,1,.07.88,8.24,8.24,0,0,1-.37,2.51,7.57,7.57,0,0,1-1,2.09,6.08,6.08,0,0,1-1.56,1.52,5.32,5.32,0,0,1-1.73.78Z" transform="translate(-242.88 -333.41)"/></svg>