<svg id="Layer_1" data-name="Layer 1" xmlns="http://www.w3.org/2000/svg" viewBox="0 0 512 456.65"><defs><style>.cls-1{fill:#ffda44;}.cls-2{fill:#ff5023;}.cls-3{fill:#6f00e9;}.cls-4{fill:#6affd7;}.cls-5{fill:#ff0a7f;}.cls-6{fill:#e9cc00;}</style></defs><rect class="cls-1" x="41.51" y="159.13" width="69.19" height="138.38"/><path class="cls-2" d="M124.54,274.31V152.22H88.8c-55.5,0-88.8,61-88.8,61S13.51,238,37.64,256C13.51,274,0,298.73,0,298.73s33.3,61,88.8,61h35.74V274.31Zm-72.73-61c8.16-8.49,19-16.94,31.22-19V232.3C70.8,230.2,60,221.78,51.81,213.29Zm0,85.47c8.16-8.49,19-16.94,31.22-19.06v38.07C70.8,315.67,60,307.25,51.81,298.76Z" transform="translate(0 -27.68)"/><path class="cls-2" d="M124.54,274.31V256H37.64C13.51,274,0,298.73,0,298.73s33.3,61,88.8,61h35.74V274.31ZM51.81,298.76c8.16-8.49,19-16.94,31.22-19.06v38.07C70.8,315.67,60,307.25,51.81,298.76Z" transform="translate(0 -27.68)"/><polygon class="cls-3" points="287.86 41.51 202.33 41.51 160.81 0 83.03 0 83.03 166.05 370.89 166.06 287.86 41.51"/><polygon class="cls-3" points="202.33 415.13 287.86 415.13 370.89 290.6 83.03 290.59 83.03 456.65 160.81 456.65 202.33 415.13"/><path class="cls-4" d="M83,359.78H361C455.39,359.78,512,256,512,256S455.39,152.22,361,152.22H83V359.78Z" transform="translate(0 -27.68)"/><path class="cls-4" d="M83,359.78H361C455.39,359.78,512,256,512,256H83Z" transform="translate(0 -27.68)"/><path class="cls-5" d="M387.46,297.51A41.5,41.5,0,0,0,429,256h0a41.51,41.51,0,0,0-41.51-41.51Z" transform="translate(0 -27.68)"/><ellipse class="cls-5" cx="235.24" cy="228.32" rx="55.35" ry="41.51"/><path class="cls-5" d="M387.46,297.51A41.5,41.5,0,0,0,429,256H387.46Z" transform="translate(0 -27.68)"/><path class="cls-5" d="M290.6,256c0,22.93-24.79,41.51-55.36,41.51S179.89,278.93,179.89,256" transform="translate(0 -27.68)"/><rect class="cls-6" x="83.03" y="124.54" width="41.51" height="207.57"/><rect class="cls-6" x="83.03" y="228.32" width="41.51" height="103.78"/></svg>