<svg id="Layer_1" data-name="Layer 1" xmlns="http://www.w3.org/2000/svg" viewBox="0 0 444 157.91"><defs><style>.cls-1{fill:#6f00e9;}.cls-2{fill:#359bff;}.cls-3{fill:#ffda44;}.cls-4{fill:#6affd7;}.cls-5{fill:#ff2a72;}.cls-6{fill:#ff5023;}</style></defs><path class="cls-1" d="M657.61,351.15l-57.77-15.21A4.55,4.55,0,0,1,598,335l-20.89-18a4.81,4.81,0,0,0-3.05-1.13l-44.53-.75c-2.49,0-4.53,1.69-4.53,3.84l.06,44.33c0,2.12,2,3.83,4.44,3.83H693.78c5.21,0,6.17-6.41,1.12-7.54Z" transform="translate(-384 -315.09)"/><path class="cls-1" d="M658,436.94l-57.94,15.21a4.66,4.66,0,0,0-1.85,1l-20.94,18a4.88,4.88,0,0,1-3.07,1.13l-44.66.75c-2.49,0-4.54-1.69-4.54-3.84l.06-44.33c0-2.12,2-3.83,4.45-3.83H694.28c5.23,0,6.18,6.41,1.12,7.54Z" transform="translate(-384 -315.09)"/><path class="cls-2" d="M525,426H721.37c8.24-.74,44.62-4.16,67.76-12,5.59-1.89,10.55-4,10.55-4,6.77-3.18,11.72-5.6,13-6.32l.64-.35s1.46-.82,2.91-1.66c1.2-.71,5.73-3.54,11.74-7.67a110,110,0,0,0-14.64-9.3l-.55-.3c-2.08-1.13-6.79-3.63-13.13-6.4,0,0-5.61-2.46-11.37-4.52-24.15-8.61-59.88-11-66.94-11.48H525Z" transform="translate(-384 -315.09)"/><rect class="cls-3" x="141" y="46.91" width="12" height="64"/><path class="cls-4" d="M811,395" transform="translate(-384 -315.09)"/><ellipse class="cls-5" cx="266.5" cy="79.32" rx="47.5" ry="18.59"/><rect class="cls-6" x="34" y="51.91" width="98" height="5" rx="2.5"/><rect class="cls-6" y="74.91" width="121" height="5" rx="2.5"/><rect class="cls-6" x="34" y="97.91" width="98" height="5" rx="2.5"/><polygon class="cls-5" points="392.38 54.82 392.38 102.53 396.31 101.54 400.93 100.24 406.09 98.58 410.01 97.16 415.68 94.91 421.46 92.17 426.62 89.66 431.61 86.96 435.68 84.45 438.82 82.4 441.38 80.69 444 78.91 440.52 76.4 437.84 74.62 433.53 71.97 429.83 69.86 424.82 67.22 419.98 64.86 414.51 62.41 408.52 59.97 401.11 57.31 392.38 54.82"/></svg>