<svg id="Layer_5" enable-background="new 0 0 64 64" height="512" viewBox="0 0 64 64" width="512" xmlns="http://www.w3.org/2000/svg" xmlns:xlink="http://www.w3.org/1999/xlink"><linearGradient id="SVGID_1_" gradientUnits="userSpaceOnUse" x1="32" x2="32" y1="63" y2="1.001"><stop offset="0" stop-color="#9f2fff"/><stop offset="1" stop-color="#0bb1d3"/></linearGradient><path d="m4 63h48v-1.679l3.882-5.435c.731-1.023 1.118-2.229 1.118-3.489v-.397c0-1.666-.684-3.175-1.784-4.263 1.049-.468 1.784-1.516 1.784-2.737v-8.184c1.161-.414 2-1.514 2-2.816s-.839-2.402-2-2.816v-5.714c0-1.207.563-2.355 1.545-3.149 2.831-2.291 4.455-5.688 4.455-9.321 0-3.41-1.459-6.671-4.002-8.946-2.542-2.273-5.962-3.362-9.376-2.977-5.265.588-9.67 4.802-10.475 10.02-.205 1.326-.169 2.636.043 3.903h-35.19c-1.654 0-3 1.346-3 3v42c0 1.654 1.346 3 3 3zm-1-3v-31h42v2.184c-1.161.414-2 1.514-2 2.816s.839 2.402 2 2.816v8.184c0 1.221.735 2.269 1.784 2.737-1.1 1.088-1.784 2.597-1.784 4.263v.397c0 1.259.387 2.465 1.118 3.487l3.653 5.116h-45.771c-.552 0-1-.449-1-1zm52-33v4h-8v-4zm-4.665-11h1.33l-.601 9h-.129zm-3.335 21h8v5h-8zm8 15.397c0 .839-.258 1.643-.745 2.325l-3.255 4.557-3.255-4.558c-.487-.68-.745-1.484-.745-2.324v-.397c0-2.206 1.794-4 4-4s4 1.794 4 4zm-7-6.397c-.552 0-1-.449-1-1v-1h8v1c0 .551-.448 1-1 1zm8-11h-10c-.552 0-1-.449-1-1s.448-1 1-1h10c.552 0 1 .449 1 1s-.448 1-1 1zm-14.876-23.598c.67-4.341 4.337-7.847 8.721-8.337 2.888-.321 5.671.558 7.819 2.48 2.12 1.896 3.336 4.613 3.336 7.455 0 3.026-1.354 5.857-3.713 7.766-1.327 1.073-2.129 2.597-2.26 4.234h-1.958l.6-9h1.331c1.654 0 3-1.346 3-3s-1.346-3-3-3h-.129c-1.574 0-2.89 1.23-2.993 2.801l-.08 1.199h-1.596l-.08-1.199c-.103-1.571-1.419-2.801-2.993-2.801h-.129c-1.654 0-3 1.346-3 3s1.346 3 3 3h1.331l.6 9h-1.958c-.134-1.628-.95-3.163-2.3-4.267-2.775-2.268-4.101-5.756-3.549-9.331zm12.679 2.598.071-1.067c.034-.523.473-.933.997-.933h.129c.552 0 1 .449 1 1s-.448 1-1 1zm-5.606 0h-1.197c-.552 0-1-.449-1-1s.448-1 1-1h.129c.524 0 .963.41.997.934zm-44.197 3h35.697c.717 2.029 1.969 3.858 3.71 5.282 1.012.827 1.593 1.989 1.593 3.186v1.532h-42v-9c0-.551.448-1 1-1zm7 2h-6v6h6zm-2 4h-2v-2h2zm10-4h-6v6h6zm-2 4h-2v-2h2zm10-4h-6v6h6zm-2 4h-2v-2h2zm-20 26h18v-18h-18zm2-16h14v14h-14zm20 0h-2v-2h2zm2-2h12v2h-12zm-4 4h16v2h-16zm0 4h16v2h-16zm14 4h2v2h-2zm-2 2h-12v-2h12zm-12 2h16v2h-16zm0 12h16v-8h-16zm2-6h12v4h-12zm-20 0h-2v-2h2zm2-2h14v2h-14zm-4 4h18v2h-18z" fill="url(#SVGID_1_)"/></svg>