<?xml version="1.0" encoding="utf-8"?>
<!-- Generator: Adobe Illustrator 24.0.2, SVG Export Plug-In . SVG Version: 6.00 Build 0)  -->
<svg version="1.1" xmlns="http://www.w3.org/2000/svg" xmlns:xlink="http://www.w3.org/1999/xlink" x="0px" y="0px"
	 viewBox="0 0 1920 293.3" style="enable-background:new 0 0 1920 293.3;" xml:space="preserve">
<style type="text/css">
	.st0{fill:#FFD700;}
	.st1{fill:#272727;}
	.st2{fill:#FFFFFF;}
	.st3{fill:#FFD54A;}
</style>
<g id="Layer_2">
</g>
<g id="Layer_1">
	<g id="sun">
		<ellipse class="st0" cx="291.2" cy="43.4" rx="41" ry="39.5"/>
		<path class="st1" d="M291.2,6.9c21,0,38,16.3,38,36.5s-17,36.5-38,36.5s-38-16.3-38-36.5C253.2,23.3,270.2,6.9,291.2,6.9
			 M291.2,0.9c-24.3,0-44,19.1-44,42.5s19.7,42.5,44,42.5s44-19.1,44-42.5S315.4,0.9,291.2,0.9L291.2,0.9z"/>
	</g>
	<path id="whiteout" class="st2" d="M251.8,19.6l7.1,5.2l24.8,3L304,52.4l1.1,27.7l22.8-37.2L395,99L213.2,83.1L251.8,19.6z"/>
	<path id="house_1_" class="st1" d="M286.2,24.2h-25.3v-1.8v-6h-6h-1.3h-2.2H251h-6v6v1.8h-28.2v-7.7h-0.2v-0.1h-6h-3.9h-6v6v1.8
		h-30.8v-1.8v-6h-6H163h-3h-6l0,6v6.8l-19.2,22.9v84.8h6V64.6h15.6l12.1-14.9l10.6,14.9h22.1l13.2-15.7l12.3,15.7h23.2L261.2,49
		l12.2,15.5h27.9V110v27.2h6V52L286.2,24.2z M160,30.3v-7.9h0h3h0.9v7.9h6h0.9h22.3h7.6h6v-7.9h3.9v7.9h6h14.1H245h6v-7.9h0.4h2.2
		h1.3v7.9h6h5.3H283L301,54v4.5l-24.8,0.1l-15.3-19.5l-14.2,19.5h-17.3l-15.1-19.2l-16.1,19.2H182l-13.4-18.7l-15.3,18.7h-12.7v-4.5
		"/>
	<path id="house" class="st1" d="M452.9,48.3h-25.3v-1.8v-6h-6h-1.3h-2.2h-0.4h-6v6v1.8h-28.2v-7.7h-0.2v-0.1h-6h-3.9h-6v6v1.8
		h-30.8v-1.8v-6h-6h-0.9h-3h-6l0,6v6.8l-19.2,22.9V161h6V88.7h15.6l12.1-14.9l10.6,14.9h22.1L381.1,73l12.3,15.7h23.2l11.3-15.6
		l12.2,15.5H468v45.5v27.2h6V76.1L452.9,48.3z M326.7,54.4v-7.9h0h3h0.9v7.9h6h0.9h22.3h7.6h6v-7.9h3.9v7.9h6h14.1h14.3h6v-7.9h0.4
		h2.2h1.3v7.9h6h5.3h16.8l18,23.7v4.5l-24.8,0.1l-15.3-19.5l-14.2,19.5h-17.3L381,63.5l-16.1,19.2h-16.2L335.3,64L320,82.7h-12.7
		v-4.5"/>
	<path id="wave_1_" class="st3" d="M1920,2c0,25.9-608.9,42.9-666.6,48.4c-184.4,17.5-366.6,55.1-551.3,67.5
		C465.6,133.8,229,105.2,0.5,44.9c-0.2,0-0.4-0.1-0.5-0.1v250.6h1920C1920,295.3,1920,5.5,1920,2z"/>
</g>
</svg>
