<?xml version="1.0" encoding="utf-8"?>
<!-- Generator: Adobe Illustrator 24.0.2, SVG Export Plug-In . SVG Version: 6.00 Build 0)  -->
<svg version="1.1" xmlns="http://www.w3.org/2000/svg" xmlns:xlink="http://www.w3.org/1999/xlink" x="0px" y="0px"
	 viewBox="0 0 339.6 132.7" style="enable-background:new 0 0 339.6 132.7;" xml:space="preserve">
<style type="text/css">
	.st0{fill:#FFD700;}
	.st1{fill:#272727;}
	.st2{fill:#FFFFFF;}
	.st3{fill:none;}
	.st4{display:none;}
	.st5{display:inline;fill:#272727;}
</style>
<g id="Layer_1">
	<g id="Solbyen" transform="translate(218 1599)">
		<g id="Ellipse_1">
			<ellipse class="st0" cx="-61" cy="-1560.2" rx="41" ry="39.5"/>
			<path class="st1" d="M-61-1596.7c21,0,38,16.3,38,36.5c0,20.2-17,36.5-38,36.5s-38-16.3-38-36.5C-99-1580.4-82-1596.7-61-1596.7
				 M-61-1602.7c-24.3,0-44,19.1-44,42.5s19.7,42.5,44,42.5s44-19.1,44-42.5S-36.7-1602.7-61-1602.7L-61-1602.7z"/>
		</g>
		<path id="Path_15" class="st2" d="M-100.4-1584.1l7.1,5.2l24.8,3l20.3,24.6l1.1,27.7l24-34.9l66,53.7l-181.8-15.8L-100.4-1584.1z"
			/>
	</g>
	<polygon class="st3" points="315.5,53.2 286.3,53.2 286.2,44.8 283.9,44.8 284.1,52.9 243.1,52.9 243.1,45 239.1,45 239.1,52.9 
		225.5,52.9 195.4,52.7 195.4,47.5 195.4,45 192.8,45 192.5,51.3 173,76.6 173,81.2 185.7,81.2 201,62.4 214.4,81.2 230.6,81.2 
		230.6,81.2 246.8,62 261.8,81.2 279.1,81.2 293.3,61.7 308.5,81.2 333.6,81.2 333.6,76.6 	"/>
	<g>
		<polygon class="st3" points="167,49.4 149,25.7 119.8,25.7 119.6,17.6 117.4,17.6 117.5,25.7 76.5,25.7 76.5,17.8 72.6,17.8 
			72.6,25.7 59,25.7 28.9,25.7 28.9,17.8 25.9,17.8 25.9,25.7 6.4,49.4 6.4,54 19.2,54 34.4,35.2 47.8,54 64.1,54 64.1,54 
			80.2,34.8 95.3,54 112.6,54 126.7,34.5 142,54 167,54 		"/>
		<polygon class="st3" points="286.3,52.9 286.2,44.8 283.9,44.8 284.1,52.9 243.1,52.9 243.1,45 239.1,45 239.1,52.9 225.5,52.9 
			195.4,52.9 195.4,45 192.4,45 192.4,52.9 173,76.6 173,81.2 185.7,81.2 201,62.4 214.4,81.2 230.6,81.2 230.6,81.2 246.8,62 
			261.8,81.2 279.1,81.2 293.3,61.7 308.5,81.2 333.6,81.2 333.6,76.6 315.5,52.9 		"/>
		<path class="st1" d="M318.5,46.7H292V39h-14.2v7.7h-28.7V39h-15.9v7.7h-31.7V39H187v11.7l-14,16.7v-20l-21.1-27.8h-26.5v-7.7
			h-14.2v7.7H82.5v-7.7H66.6v7.7H34.9v-7.7H20.4v11.7l-20,23.9v84.8h6V60H22l12.1-14.9L44.7,60l22.1,0L80,44.3L92.4,60l23.2,0
			l11.3-15.6L139.1,60H167v14.6v30.9v27.2h6v-27.2V87.2h15.6l12.1-14.9l10.6,14.9l22.1,0l13.2-15.7l12.3,15.7l23.2,0l11.3-15.6
			l12.2,15.5h27.9v45.5h6V74.6L318.5,46.7z M142,54l-15.3-19.5L112.6,54H95.3L80.2,34.8L64.1,54l0,0H47.8L34.4,35.2L19.2,54H6.4
			v-4.5l19.4-23.7v-7.9h3v7.9l30.1,0h13.6v-7.9h3.9v7.9h41l-0.2-8.1h2.2l0.2,8.1H149l18,23.7V54H142z M333.6,81.2h-25l-15.3-19.5
			l-14.2,19.5h-17.3L246.8,62l-16.1,19.2l0,0h-16.3L201,62.4l-15.3,18.7H173v-4.5l19.4-23.7V45h3v7.9l30.1,0h13.6V45h3.9v7.9h41
			l-0.2-8.1h2.2l0.2,8.1h29.2l18,23.7V81.2z"/>
	</g>
</g>
<g id="Layer_2" class="st4">
	<path class="st5" d="M107.7,44.6v-7.7H93.3v11.7l-20,23.9v58.1h6V85h15.6L107,70.1L117.6,85l22.1,0l13.2-15.7L165.2,85l23.2,0
		l11.3-15.6L211.9,85h27.9v45.5h6V72.4l-21.1-27.8h-26.5v-7.7h-14.2v7.7h-28.7v-7.7h-15.9v7.7H107.7z M101.7,50.7l30.1,0h13.6v-7.9
		h3.9v7.9h41l-0.2-8.1h2.2l0.2,8.1h29.2l18,23.7V79h-25l-15.3-19.5L185.4,79h-17.3l-15.1-19.2L136.9,79l0,0h-16.3l-13.4-18.7L92,79
		H79.3v-4.5l19.4-23.7v-7.9h3V50.7z"/>
</g>
</svg>
