<?xml version="1.0" encoding="utf-8"?>
<!-- Generator: Adobe Illustrator 24.0.2, SVG Export Plug-In . SVG Version: 6.00 Build 0)  -->
<svg version="1.1" id="Layer_1" xmlns="http://www.w3.org/2000/svg" xmlns:xlink="http://www.w3.org/1999/xlink" x="0px" y="0px"
	 viewBox="0 0 1920 293.3" style="enable-background:new 0 0 1920 293.3;" xml:space="preserve">
<style type="text/css">
	.st0{fill:#FFD700;}
	.st1{fill:#272727;}
	.st2{fill:#FFFFFF;}
	.st3{fill:#FFD54A;}
</style>
<g>
	<g id="sun">
		<ellipse class="st0" cx="291.2" cy="41.4" rx="41" ry="39.5"/>
		<path class="st1" d="M291.2,4.9c21,0,38,16.3,38,36.5c0,20.2-17,36.5-38,36.5s-38-16.3-38-36.5C253.2,21.3,270.2,4.9,291.2,4.9
			 M291.2-1.1c-24.3,0-44,19.1-44,42.5s19.7,42.5,44,42.5s44-19.1,44-42.5S315.4-1.1,291.2-1.1L291.2-1.1z"/>
	</g>
	<path id="whiteout" class="st2" d="M251.8,17.6l7.1,5.2l24.8,3l20.3,24.6l1.1,27.7l24-34.9L395,97L213.2,81.1L251.8,17.6z"/>
	<path id="house" class="st1" d="M452.7,49.4h-26.5v-7.7H412v7.7h-28.7v-7.7h-15.9v7.7h-31.7v-7.7h-14.4v11.7l-14,16.7V50
		l-21.1-27.8h-26.5v-7.7h-14.2v7.7h-28.7v-7.7h-15.9v7.7h-31.7v-7.7h-14.4v11.7l-20,23.9v84.8h6V62.6h15.6l12.1-14.9l10.6,14.9
		l22.1,0l13.2-15.7l12.3,15.7l23.2,0l11.3-15.6l12.2,15.5h27.9v14.6v30.9v27.2h6v-27.2V89.8h15.6L334.8,75l10.6,14.9l22.1,0
		l13.2-15.7l12.3,15.7l23.2,0l11.3-15.6l12.2,15.5h27.9v45.5h6V77.2L452.7,49.4z M276.2,56.6l-15.3-19.5l-14.2,19.5h-17.3
		l-15.1-19.2l-16.1,19.2l0,0H182l-13.4-18.7l-15.3,18.7h-12.7v-4.5L160,28.3v-7.9h3v7.9l30.1,0h13.6v-7.9h3.9v7.9h41l-0.2-8.1h2.2
		l0.2,8.1h29.2l18,23.7v4.5H276.2z M467.7,83.8h-25l-15.3-19.5l-14.2,19.5H396l-15.1-19.2l-16.1,19.2l0,0h-16.3l-13.4-18.7
		l-15.3,18.7h-12.7v-4.5l19.4-23.7v-7.9h3v7.9l30.1,0h13.6v-7.9h3.9v7.9h41l-0.2-8.1h2.2l0.2,8.1h29.2l18,23.7V83.8z"/>
</g>
<path id="wave_1_" class="st3" d="M1920,0c0,25.9-608.9,42.9-666.6,48.4c-184.4,17.5-366.6,55.1-551.3,67.5
	C465.6,131.8,229,103.2,0.5,42.9c-0.2,0-0.4-0.1-0.5-0.1v250.6h1920C1920,293.3,1920,3.5,1920,0z"/>
</svg>
